HIERARCHY
ROOT Hips
{
	OFFSET -0.001795 -0.223333 0.028219
	CHANNELS 6 Xposition Yposition Zposition Zrotation Yrotation Xrotation 
	JOINT LeftUpLeg
	{
		OFFSET 0.069520 -0.091406 -0.006815
		CHANNELS 3 Zrotation Yrotation Xrotation
		JOINT LeftLeg
		{
			OFFSET 0.034277 -0.375199 -0.004496
			CHANNELS 3 Zrotation Yrotation Xrotation
			JOINT LeftFoot
			{
				OFFSET -0.013596 -0.397961 -0.043693
				CHANNELS 3 Zrotation Yrotation Xrotation
				JOINT LeftToe
				{
					OFFSET 0.026358 -0.055791 0.119288
					CHANNELS 3 Zrotation Yrotation Xrotation
					End Site
					{
						OFFSET 0.000000 0.000000 0.000000
					}
				}
			}
		}
	}
	JOINT RightUpLeg
	{
		OFFSET -0.067670 -0.090522 -0.004320
		CHANNELS 3 Zrotation Yrotation Xrotation
		JOINT RightLeg
		{
			OFFSET -0.038290 -0.382569 -0.008850
			CHANNELS 3 Zrotation Yrotation Xrotation
			JOINT RightFoot
			{
				OFFSET 0.015774 -0.398415 -0.042312
				CHANNELS 3 Zrotation Yrotation Xrotation
				JOINT RightToe
				{
					OFFSET -0.025372 -0.048144 0.123348
					CHANNELS 3 Zrotation Yrotation Xrotation
					End Site
					{
						OFFSET 0.000000 0.000000 0.000000
					}
				}
			}
		}
	}
	JOINT Spine
	{
		OFFSET -0.002533 0.108963 -0.026696
		CHANNELS 3 Zrotation Yrotation Xrotation
		JOINT Spine1
		{
			OFFSET 0.005487 0.135180 0.001092
			CHANNELS 3 Zrotation Yrotation Xrotation
			JOINT Spine2
			{
				OFFSET 0.001457 0.052922 0.025425
				CHANNELS 3 Zrotation Yrotation Xrotation
				JOINT Neck
				{
					OFFSET -0.002778 0.213870 -0.042857
					CHANNELS 3 Zrotation Yrotation Xrotation
					JOINT Head
					{
						OFFSET 0.005152 0.064970 0.051349
						CHANNELS 3 Zrotation Yrotation Xrotation
						End Site
						{
							OFFSET 0.000000 0.000000 0.000000
						}
					}
				}
				JOINT LeftShoulder
				{
					OFFSET 0.078845 0.121749 -0.034090
					CHANNELS 3 Zrotation Yrotation Xrotation
					JOINT LeftArm
					{
						OFFSET 0.090977 0.030469 -0.008868
						CHANNELS 3 Zrotation Yrotation Xrotation
						JOINT LeftForeArm
						{
							OFFSET 0.259612 -0.012772 -0.027456
							CHANNELS 3 Zrotation Yrotation Xrotation
							JOINT LeftHand
							{
								OFFSET 0.249234 0.008986 -0.001171
								CHANNELS 3 Zrotation Yrotation Xrotation
								End Site
								{
									OFFSET 0.000000 0.000000 0.000000
								}
							}
						}
					}
				}
				JOINT RightShoulder
				{
					OFFSET -0.081759 0.118833 -0.038615
					CHANNELS 3 Zrotation Yrotation Xrotation
					JOINT RightArm
					{
						OFFSET -0.096012 0.032551 -0.009143
						CHANNELS 3 Zrotation Yrotation Xrotation
						JOINT RightForeArm
						{
							OFFSET -0.253742 -0.013329 -0.021401
							CHANNELS 3 Zrotation Yrotation Xrotation
							JOINT RightHand
							{
								OFFSET -0.255298 0.007772 -0.005559
								CHANNELS 3 Zrotation Yrotation Xrotation
								End Site
								{
									OFFSET 0.000000 0.000000 0.000000
								}
							}
						}
					}
				}
			}
		}
	}
}
MOTION
Frames: 16
Frame Time: 0.050000
0.000000 0.896968 0.000000 -6.379986 -40.834076 7.208537 -1.286888 1.671697 -35.895746 -4.916537 1.951085 11.735347 4.944424 8.107359 27.085814 0.000000 0.000000 0.000000 13.811704 -1.412006 6.325101 2.147465 1.335713 15.747799 -5.532932 -1.337987 -10.501945 0.000000 0.000000 0.000000 -2.448312 0.825232 16.665082 -9.219821 3.783018 -4.589998 3.395876 17.717705 9.237098 9.766281 -4.136045 -23.116594 0.000000 0.000000 0.000000 -13.558865 -4.577692 1.790771 -56.773661 -14.779544 -0.041630 -2.531087 -22.624336 1.598019 0.000000 0.000000 0.000000 15.665890 16.959224 6.268885 63.884261 30.819921 10.792669 0.727908 29.269867 1.037596 0.000000 0.000000 0.000000 
-0.043216 0.888865 0.027391 -7.230829 -41.954177 6.864133 -0.631281 1.194276 -31.153375 -4.278168 1.908173 11.889815 7.723168 11.455144 19.560795 0.000000 0.000000 0.000000 17.055562 -1.478896 6.764941 -0.417982 2.721384 20.803085 -4.861457 -4.350957 -6.078950 0.000000 0.000000 0.000000 -4.800421 1.568744 18.061875 -5.671341 2.384107 -2.784110 1.633412 20.040049 8.653213 7.187641 -2.523309 -22.756398 0.000000 0.000000 0.000000 -15.898891 -6.129371 2.091392 -52.700487 -15.556398 0.048276 -1.354526 -21.448904 1.194410 0.000000 0.000000 0.000000 15.689631 18.251359 7.580170 64.972020 29.688858 10.428114 -0.848057 33.129143 0.933120 0.000000 0.000000 0.000000 
-0.085797 0.892365 0.054030 -5.292209 -40.655253 6.673676 -2.387029 0.414155 -31.073224 -2.335856 1.699212 15.364102 7.417638 11.730106 14.704052 0.000000 0.000000 0.000000 11.842527 -0.898241 2.376096 6.093479 3.006945 29.398930 3.419012 2.584195 5.186299 0.000000 0.000000 0.000000 -5.331265 1.750978 18.538369 -7.283355 3.196402 -2.515106 1.462360 17.270612 6.451373 6.309388 -1.973245 -24.393750 0.000000 0.000000 0.000000 -19.208130 -7.510664 3.188695 -49.957435 -16.838450 0.560272 2.285939 -17.315221 0.435001 0.000000 0.000000 0.000000 14.840344 16.356290 6.198449 65.250354 30.097246 10.879813 2.881916 30.576733 1.657818 0.000000 0.000000 0.000000 
-0.124460 0.897475 0.077092 -6.297296 -40.192858 7.420134 -2.110189 0.414881 -30.711353 0.548911 1.328431 19.743273 7.023435 11.702326 11.001238 0.000000 0.000000 0.000000 11.166700 -0.083204 -3.050996 12.462900 3.143445 38.809324 7.523167 -2.467402 22.951065 0.000000 0.000000 0.000000 -5.658358 1.897460 19.018538 -6.978012 3.154313 -1.909536 0.157888 16.777055 5.744241 5.361974 -1.740292 -21.887858 0.000000 0.000000 0.000000 -17.430355 -8.818477 3.776820 -49.613878 -19.208867 1.634451 2.374348 -15.906141 0.367528 0.000000 0.000000 0.000000 15.155150 17.521462 6.868694 63.923234 30.543736 10.904235 3.226041 31.024173 1.784640 0.000000 0.000000 0.000000 
-0.160155 0.905477 0.095433 -6.173496 -38.175924 7.360199 -0.514715 0.376885 -28.321300 -0.588195 1.666545 19.806014 6.204433 10.830138 9.117081 0.000000 0.000000 0.000000 6.760605 1.078789 -9.948722 19.466560 1.421221 44.432468 7.392718 -4.728113 29.986383 0.000000 0.000000 0.000000 -5.427390 2.008448 20.591331 -6.036775 2.522160 -3.112507 -1.055449 14.906360 8.000486 4.818313 -1.782876 -20.175806 0.000000 0.000000 0.000000 -17.559777 -10.621692 5.075143 -47.403568 -21.941633 2.273251 2.082783 -16.312577 0.428249 0.000000 0.000000 0.000000 14.580273 18.139924 6.995176 64.358835 31.170575 11.074077 0.495353 31.613145 1.099958 0.000000 0.000000 0.000000 
-0.193916 0.914812 0.110506 -7.945667 -37.268733 8.735829 2.839516 1.115365 -26.654735 -1.634926 2.085033 20.167953 5.587612 9.938124 8.526703 0.000000 0.000000 0.000000 4.763785 2.161081 -15.515175 21.745154 0.366897 43.561708 -3.135408 -13.560635 11.732645 0.000000 0.000000 0.000000 -5.096983 2.032049 21.464015 -5.395411 2.132450 -3.907599 -0.666817 14.529822 8.803143 4.683731 -1.574523 -21.705185 0.000000 0.000000 0.000000 -16.923797 -11.739146 5.705794 -46.820636 -24.863139 3.345128 2.971538 -17.288107 0.337951 0.000000 0.000000 0.000000 14.674502 18.562049 7.192662 63.835124 31.898825 11.336000 -0.221144 30.725190 0.891342 0.000000 0.000000 0.000000 
-0.227134 0.925498 0.123529 -8.439769 -34.170097 9.110898 3.737572 0.845339 -24.334870 -0.158809 1.205660 18.762468 4.319035 7.946026 8.817583 0.000000 0.000000 0.000000 4.278557 2.962745 -18.998661 18.346874 0.269628 37.491658 -9.935693 -20.711068 -6.488197 0.000000 0.000000 0.000000 -4.580699 1.809739 21.931634 -4.353671 1.760697 -3.294132 -0.903463 12.563926 8.881363 4.819494 -1.668079 -21.913914 0.000000 0.000000 0.000000 -17.493418 -12.963936 6.539438 -45.746155 -27.088499 4.049554 4.802367 -18.903278 0.099095 0.000000 0.000000 0.000000 14.347082 17.971596 6.792364 64.633280 31.012690 10.958861 -0.403797 30.310600 0.813199 0.000000 0.000000 0.000000 
-0.258687 0.932858 0.135237 -9.059637 -31.749750 9.384197 5.457294 1.003846 -23.046511 0.375795 0.934989 19.095356 3.128206 6.104693 9.137501 0.000000 0.000000 0.000000 4.178618 3.494554 -21.177589 13.788504 0.279030 28.396313 -9.876593 -21.383299 -2.963945 0.000000 0.000000 0.000000 -4.372136 1.731078 22.682458 -4.033403 1.711675 -2.559858 -0.627623 11.652859 8.057363 5.443853 -2.014419 -21.109472 0.000000 0.000000 0.000000 -15.785443 -15.055975 7.304802 -46.504633 -29.379829 5.307370 6.384422 -21.265549 -0.180740 0.000000 0.000000 0.000000 13.566102 17.613366 6.681321 65.184212 30.230033 10.717249 -0.776942 29.881412 0.723630 0.000000 0.000000 0.000000 
-0.288730 0.936908 0.146118 -9.236844 -28.871981 9.273025 6.246587 0.866200 -21.696076 1.921310 0.264629 18.968467 1.918693 4.247753 8.790392 0.000000 0.000000 0.000000 4.067391 3.665068 -22.074974 8.748727 0.297897 19.514137 -6.267220 -20.262586 15.209500 0.000000 0.000000 0.000000 -3.846877 1.448095 22.790419 -3.357831 1.490369 -1.786724 -1.382171 10.462432 7.752208 5.615510 -2.084184 -20.817938 0.000000 0.000000 0.000000 -15.938274 -16.096220 7.771758 -45.640963 -31.868045 6.201346 7.487850 -24.012843 -0.426087 0.000000 0.000000 0.000000 13.111377 18.093681 6.985202 65.105704 29.580713 10.357363 -0.832385 29.190380 0.711563 0.000000 0.000000 0.000000 
-0.318071 0.937268 0.155667 -8.563986 -27.093307 8.729220 6.476655 0.706825 -20.650253 3.100705 -0.163948 19.466509 1.210097 3.126006 8.210176 0.000000 0.000000 0.000000 3.586264 3.620564 -22.313331 4.436647 0.375305 12.897700 -2.559538 -17.242081 23.751116 0.000000 0.000000 0.000000 -3.824883 1.429338 23.485218 -3.212068 1.331763 -2.890004 -1.945688 9.917966 8.548236 6.079468 -2.471299 -19.712245 0.000000 0.000000 0.000000 -15.345096 -17.506607 8.390998 -46.477689 -33.550473 7.040370 9.841454 -26.643133 -0.989883 0.000000 0.000000 0.000000 13.192519 17.616867 6.844014 64.939968 29.355523 10.107126 0.284900 29.246956 1.012988 0.000000 0.000000 0.000000 
-0.346945 0.935485 0.163268 -8.951132 -26.263640 8.993622 7.735664 0.878861 -19.742177 4.299599 -0.562361 19.728432 0.967646 2.660248 7.145452 0.000000 0.000000 0.000000 3.031474 3.764559 -23.315804 2.908321 0.252848 8.755600 0.928300 -12.227180 23.253887 0.000000 0.000000 0.000000 -3.280433 1.223242 23.398818 -2.796228 1.246254 -1.703898 -3.103319 10.644771 6.686938 6.751943 -2.789054 -18.465291 0.000000 0.000000 0.000000 -14.339229 -18.583052 8.376454 -47.920547 -34.282609 7.911305 10.317351 -27.196115 -1.211681 0.000000 0.000000 0.000000 14.419138 18.539487 7.741231 64.119993 29.568141 10.355631 -1.348526 28.356790 0.653704 0.000000 0.000000 0.000000 
-0.375698 0.933483 0.167943 -8.463589 -26.202448 9.479803 8.701253 1.175324 -20.517523 4.634496 -0.564001 21.666017 0.772639 2.377499 7.517788 0.000000 0.000000 0.000000 3.236455 3.914365 -23.821509 1.416713 0.281409 6.797996 4.243205 -7.706335 24.022997 0.000000 0.000000 0.000000 -2.731179 1.126160 23.814959 -3.755934 1.697279 -1.597231 -3.707992 10.682798 5.805288 8.109858 -3.791532 -16.696576 0.000000 0.000000 0.000000 -15.026389 -20.100053 9.167107 -46.636788 -34.578423 7.809473 10.630045 -26.845042 -1.299620 0.000000 0.000000 0.000000 14.950893 19.902995 8.573441 62.752397 31.900385 11.532626 -2.939382 26.388286 0.267711 0.000000 0.000000 0.000000 
-0.404214 0.930323 0.169804 -8.087995 -25.142298 9.677507 9.605367 1.395948 -21.232542 5.562340 -0.860530 23.254122 0.164618 1.439557 7.782612 0.000000 0.000000 0.000000 3.746677 3.928868 -23.688863 2.245068 0.241775 7.675584 5.006481 -5.698543 22.769849 0.000000 0.000000 0.000000 -1.928408 0.964870 25.007478 -4.490852 2.062477 -1.373942 -3.915223 10.605795 5.041504 9.025416 -4.370207 -15.942712 0.000000 0.000000 0.000000 -15.217610 -21.396483 9.675654 -45.863222 -34.498320 7.682112 9.774042 -25.953964 -1.114721 0.000000 0.000000 0.000000 15.800072 20.105142 8.956325 61.613009 34.801570 13.052494 -3.628902 25.205792 0.136855 0.000000 0.000000 0.000000 
-0.430442 0.929751 0.169105 -7.997640 -24.810022 10.259838 10.857106 1.829143 -22.403912 5.421191 -0.737921 25.369321 0.777759 2.687552 8.626094 0.000000 0.000000 0.000000 4.469118 4.310950 -24.796674 2.781413 0.316027 9.828246 5.714098 -3.610025 21.184435 0.000000 0.000000 0.000000 -0.818575 0.713025 25.791754 -5.517189 2.607477 -0.818780 -3.730007 10.222375 4.735927 9.559095 -4.801422 -15.275903 0.000000 0.000000 0.000000 -15.923905 -21.884165 10.055223 -45.253590 -33.877893 7.314587 9.796288 -25.586686 -1.106080 0.000000 0.000000 0.000000 15.902784 21.522157 9.719998 59.522545 38.464525 14.585426 -5.694413 24.212180 -0.268161 0.000000 0.000000 0.000000 
-0.452832 0.929565 0.167323 -7.657203 -25.042412 10.517443 11.538748 2.258078 -24.087151 5.606509 -0.584897 28.882977 1.038756 3.359178 9.814121 0.000000 0.000000 0.000000 5.148311 4.570862 -25.331221 4.041593 0.254543 11.265720 4.388726 -4.744082 19.193449 0.000000 0.000000 0.000000 -0.112516 0.673252 27.209542 -5.499460 2.611359 -0.704460 -4.071198 10.055103 4.740131 8.730232 -4.426018 -14.496042 0.000000 0.000000 0.000000 -17.176019 -21.634714 10.136636 -44.772455 -32.770470 6.739711 9.794953 -25.060882 -1.077728 0.000000 0.000000 0.000000 15.162743 23.334232 10.578490 58.830207 42.284366 16.575239 -8.016665 22.951146 -0.668117 0.000000 0.000000 0.000000 
-0.471305 0.929290 0.164532 -6.871006 -24.837365 10.870589 11.765742 2.703502 -26.840153 5.667022 -0.385309 32.861349 0.798101 3.368206 11.669904 0.000000 0.000000 0.000000 5.277640 4.832471 -26.257097 4.758682 0.245604 12.733647 3.348522 -5.291887 17.051120 0.000000 0.000000 0.000000 0.329249 0.594910 27.870222 -5.385150 2.612439 -0.203830 -4.144413 10.103279 4.439338 8.563100 -4.396968 -13.807514 0.000000 0.000000 0.000000 -19.394345 -22.451837 10.859167 -42.642241 -31.309790 5.757003 8.695652 -23.778721 -0.813410 0.000000 0.000000 0.000000 15.585443 24.637358 11.456065 56.283560 45.086393 17.228193 -9.365583 21.392156 -0.828010 0.000000 0.000000 0.000000 
